HIERARCHY
ROOT Hips
{
  OFFSET 2.47017 101.704 132.841
  CHANNELS 6 Xposition Yposition Zposition Zrotation Xrotation Yrotation
  JOINT RightUpLeg
  {
    OFFSET -8.9458 -8.66707 0.101652
    CHANNELS 3 Zrotation Xrotation Yrotation
    JOINT RightLeg
    {
      OFFSET 0 -44.4227 1.3727
      CHANNELS 3 Zrotation Xrotation Yrotation
      JOINT RightFoot
      {
        OFFSET 0.253549 -42.0924 -1.46059
        CHANNELS 3 Zrotation Xrotation Yrotation
        JOINT RightToes
        {
          OFFSET 0.04 -4.41509 8.4991
          CHANNELS 3 Zrotation Xrotation Yrotation
          End Site
          {
            OFFSET -0.08 -0.137448 9.77979
          }
        }
      }
    }
  }
  JOINT Spine
  {
    OFFSET 0 11.8905 0
    CHANNELS 3 Zrotation Xrotation Yrotation
    JOINT Spine1
    {
      OFFSET 0 25.6574 0.127663
      CHANNELS 3 Zrotation Xrotation Yrotation
      JOINT HEad
      {
        OFFSET 0 8.73416 0.011341
        CHANNELS 3 Zrotation Xrotation Yrotation
        End Site
        {
          OFFSET -0.29 12.7742 2.51395
        }
      }
      JOINT LeftShoulder1
      {
        OFFSET 8.99 -0.362252 -0.22
        CHANNELS 3 Zrotation Xrotation Yrotation
        JOINT LeftArm
        {
          OFFSET 10.2827 -0.00338 0.322123
          CHANNELS 3 Zrotation Xrotation Yrotation
          JOINT LeftForeArm
          {
            OFFSET 32.7669 0.099144 -1.42434
            CHANNELS 3 Zrotation Xrotation Yrotation
            JOINT LeftHand
            {
              OFFSET 27.5643 0.085362 1.02216
              CHANNELS 3 Zrotation Xrotation Yrotation
              End Site
              {
                OFFSET 16.7443 -0.6 1.50291
              }
            }
          }
        }
      }
      JOINT RightShoulder
      {
        OFFSET -8.99 -0.362252 -0.22
        CHANNELS 3 Zrotation Xrotation Yrotation
        JOINT RightArm
        {
          OFFSET -10.2827 -0.00338 0.322123
          CHANNELS 3 Zrotation Xrotation Yrotation
          JOINT RightForeArm
          {
            OFFSET -32.8971 0.099144 -1.42434
            CHANNELS 3 Zrotation Xrotation Yrotation
            JOINT RightHand
            {
              OFFSET -27.4921 0.085362 1.02216
              CHANNELS 3 Zrotation Xrotation Yrotation
              End Site
              {
                OFFSET -16.6312 -0.6 1.50291
              }
            }
          }
        }
      }
    }
  }
  JOINT LeftUpLeg
  {
    OFFSET 8.9458 -8.66707 0.101652
    CHANNELS 3 Zrotation Xrotation Yrotation
    JOINT LeftLeg
    {
      OFFSET 0 -44.4227 1.3727
      CHANNELS 3 Zrotation Xrotation Yrotation
      JOINT LeftFoot
      {
        OFFSET -0.253549 -42.0924 -1.46059
        CHANNELS 3 Zrotation Xrotation Yrotation
        JOINT LeftToes
        {
          OFFSET -0.04 -4.41509 8.4991
          CHANNELS 3 Zrotation Xrotation Yrotation
          End Site
          {
            OFFSET 0.08 -0.047448 9.77979
          }
        }
      }
    }
  }
}
MOTION
Frames:	14
Frame Time:	0.0166667
2.47017 101.704 132.841 5.30205 0.00379855 178.764 1.0338 5.11587 0.325972 11.6157 19.9786 2.70741 -1.37274 -4.64437 -0.175187 0.0462048 0.000533964 0.662642 0.242661 3.11458 0.652148 5.9927 0.616579 -0.455349 -2.19184 13.3122 9.41018 1.11816e-016 0 -0 -91.6904 -63.1805 -5.38353 -5.02438 13.2695 -20.6292 0.368473 9.90896 -0.00117926 -6.94618 0.3852 12.662 88.8951 -44.7331 -0.998554 12.0921 15.3332 26.8727 -0.369625 9.91382 0.00119886 11.9694 -11.2862 1.0966 -13.1183 16.7081 -0.508469 0.180006 -5.16585 0.0134201 9.90589e-012 5.89103e-011 1.87009e-011 
2.24802 101.73 132.11 5.50453 -0.0943958 178.883 1.03157 4.69247 0.241652 11.8418 21.2125 2.48247 -1.23887 -3.88249 -0.16302 -0.144247 0.502425 0.968974 0.117442 3.11457 0.657041 5.86791 0.488945 -0.439518 -1.77925 13.4567 9.17493 1.2424e-017 -1.59028e-015 3.97569e-016 -91.7562 -62.7623 -6.00013 -5.05012 13.2782 -20.5987 0.368473 9.90896 -0.00117926 -6.7226 0.40797 12.3368 88.6377 -44.8868 -1.24791 12.0887 15.3338 26.9299 -0.369625 9.91382 0.00119886 12.0375 -11.0575 1.15529 -13.1166 16.9693 -0.69942 0.157872 -5.50322 0.0134274 -0.0163624 -0.304612 -0.120416 
2.03373 101.755 131.392 5.71332 -0.169835 178.991 1.03935 4.23738 0.183475 12.0964 22.5089 2.19444 -1.09968 -3.07416 -0.151541 -0.292937 1.06452 1.22845 -0.0148513 3.11457 0.66479 5.75417 0.421632 -0.428181 -1.3904 13.6032 8.94905 5.51738e-033 7.95139e-016 -3.97569e-016 -91.872 -62.3423 -6.66985 -5.0706 13.2858 -20.5955 0.368473 9.90896 -0.00117926 -6.55835 0.424191 12.0775 88.4651 -45.0615 -1.46989 12.0557 15.3276 27.0003 -0.369625 9.91382 0.00119886 12.1205 -10.8084 1.16508 -13.1311 17.2171 -0.840678 0.147126 -5.83039 0.0134351 -0.0419464 -0.604908 -0.227894 
1.84251 101.775 130.712 5.93941 -0.1677 179.056 1.08765 3.72492 0.252516 12.4152 23.9405 1.72564 -0.95151 -2.13922 -0.141375 -0.354699 1.78437 1.40744 -0.172654 3.11456 0.681418 5.67072 0.555196 -0.431292 -1.07737 13.7616 8.77418 -7.45443e-017 0 -0 -92.1555 -61.9259 -7.51945 -5.0789 13.2909 -20.6816 0.368473 9.90896 -0.00117926 -6.58885 0.419328 12.0461 88.5717 -45.3356 -1.61967 11.9165 15.2999 27.1507 -0.369625 9.91382 0.00119886 12.2476 -10.4871 1.05173 -13.19 17.4338 -0.851828 0.165931 -6.13106 0.0134424 -0.101683 -0.885724 -0.281025 
1.6601 101.792 130.043 6.17244 -0.161374 179.133 1.13413 3.10558 0.249339 12.8056 25.5365 1.17001 -0.782686 -1.13233 -0.133201 -0.270311 2.6106 1.41932 -0.328961 3.11455 0.700278 5.60364 0.709264 -0.436955 -0.783922 13.9103 8.56394 -6.21202e-017 7.95139e-016 -1.98785e-016 -92.5127 -61.4928 -8.43282 -5.07464 13.2932 -20.7796 0.368473 9.90896 -0.00117926 -6.6467 0.410521 12.0187 88.7213 -45.5607 -1.7163 11.7826 15.2679 27.2324 -0.369625 9.91382 0.00119886 12.3975 -10.1671 0.843707 -13.2856 17.6206 -0.771806 0.205355 -6.41338 0.0134497 -0.151073 -1.1753 -0.35227 
1.47763 101.802 129.354 6.41831 -0.21761 179.317 1.14584 2.33526 -0.0733753 13.2808 27.338 0.607007 -0.580922 -0.0799334 -0.127272 0.0868045 3.60229 1.12371 -0.459823 3.11453 0.71769 5.55692 0.702536 -0.434917 -0.456426 14.0474 8.16674 4.96962e-017 0 -0 -92.9035 -61.006 -9.33457 -5.03926 13.2885 -20.8173 0.368473 9.90896 -0.00117926 -6.55691 0.414003 11.7086 88.661 -45.5616 -1.77726 11.7778 15.248 27.0556 -0.369625 9.91382 0.00119886 12.5683 -9.92688 0.47242 -13.4327 17.7648 -0.558255 0.266571 -6.65956 0.0156168 -0.120382 -1.53816 -0.567561 
1.2941 101.807 128.677 6.64115 -0.3015 179.453 1.08844 1.37186 -0.469025 13.8478 29.3838 -0.0372961 -0.343995 1.01354 -0.12546 0.594794 4.52607 0.646 -0.574514 3.11452 0.730777 5.49588 0.678347 -0.430181 -0.13763 14.1219 7.81923 2.48481e-017 -7.95139e-016 9.93923e-017 -93.2941 -60.5286 -10.2389 -5.02056 13.288 -20.8417 0.368473 9.90896 -0.00117926 -6.47726 0.417999 11.4656 88.6387 -45.4961 -1.75921 11.7858 15.2265 26.8099 -0.369625 9.91382 0.00119886 12.7275 -9.69932 0.154127 -13.5892 17.89 -0.375399 0.337971 -6.93109 0.0180379 -0.116489 -1.85024 -0.725219 
1.09962 101.806 128.032 6.79868 -0.414452 179.409 0.898162 0.132719 -0.784824 14.5646 31.7606 -0.84329 -0.0874473 2.02774 -0.126831 1.1917 5.42014 0.0476063 -0.658477 3.11452 0.730937 5.37072 0.70166 -0.42178 0.165131 14.077 7.73488 -7.82715e-016 0 -0 -93.6766 -60.1552 -11.1812 -5.06277 13.3027 -20.859 0.368473 9.90896 -0.00117926 -6.50767 0.418288 11.6034 88.7989 -45.4809 -1.64788 11.7314 15.197 26.6249 -0.369625 9.91382 0.00119886 12.818 -9.43915 0.110002 -13.6871 17.9901 -0.411434 0.35041 -7.28876 0.0175394 -0.23411 -1.98406 -0.631616 
0.912037 101.793 127.426 6.9122 -0.514232 179.203 0.662723 -1.3037 -0.989467 15.3542 34.359 -1.75141 0.25509 3.28398 -0.140106 1.77212 5.52698 -0.618539 -0.759259 3.11452 0.731669 5.23082 0.826294 -0.417369 0.39231 13.9306 7.83339 8.69683e-017 -1.59028e-015 -1.98785e-016 -93.9649 -59.7541 -12.0487 -5.15786 13.3284 -20.9193 0.368473 9.90896 -0.00117926 -6.64714 0.408444 11.9433 89.194 -45.4627 -1.37684 11.6165 15.1565 26.4903 -0.369625 9.91382 0.00119886 12.9002 -9.16189 0.254706 -13.8118 18.143 -0.553932 0.478206 -7.7169 0.0246606 -0.424042 -2.01464 -0.387987 
0.747307 101.758 126.892 6.98843 -0.534533 178.703 0.469488 -2.92152 -0.914565 16.1007 37.1622 -2.62955 0.897309 5.46312 -0.187524 1.94497 3.4243 -1.11479 -0.959783 3.12074 0.754187 5.14714 1.20933 -0.432655 0.405599 13.6238 8.20948 4.47266e-016 7.95139e-016 1.98785e-016 -93.9659 -59.2089 -12.635 -5.34876 13.3706 -21.1182 0.368473 9.90896 -0.00117926 -7.02711 0.36908 12.5313 90.0944 -45.4268 -0.760579 11.3673 15.087 26.4547 -0.369625 9.91382 0.00119886 13.042 -8.85539 0.678589 -14.064 18.4893 -0.835644 1.08846 -8.31899 0.0627831 -0.743963 -1.8697 0.118039 
0.601179 101.708 126.37 7.03135 -0.548916 178.227 0.30712 -4.61681 -0.817383 16.9379 39.9808 -3.76982 1.38796 7.36618 -0.228538 2.32991 1.14869 -1.92163 -1.13939 3.11722 0.766751 5.00561 1.60594 -0.442571 0.445314 13.3284 8.54915 -2.98177e-016 1.59028e-015 1.98785e-016 -93.9701 -58.5808 -13.2406 -5.52604 13.4102 -21.325 0.368473 9.90896 -0.00117926 -7.34861 0.335135 13.0077 90.9877 -45.3669 -0.144069 11.1371 15.0275 26.4704 -0.369625 9.91382 0.00119886 13.1637 -8.5556 1.07574 -14.3272 18.8336 -1.01014 1.53522 -8.79833 0.0904269 -0.977288 -1.86343 0.438935 
0.478282 101.639 125.79 7.04534 -0.63075 178.158 0.15427 -6.29376 -1.01099 18.073 42.6738 -5.6724 1.201 7.81458 -0.21745 3.87859 0.6734 -3.85861 -1.16989 3.08329 0.733537 4.66113 1.7561 -0.41839 0.817081 13.2275 8.44615 3.72721e-016 0 -0 -94.2315 -57.8531 -14.1413 -5.55138 13.4215 -21.4102 0.368473 9.90896 -0.00117926 -7.24546 0.347206 12.8723 91.3087 -45.2777 0.105641 11.0925 15.0191 26.4797 -0.369625 9.91382 0.00119886 13.1992 -8.32055 1.04543 -14.5035 18.985 -0.692593 1.01821 -8.7556 0.0558883 -0.805502 -2.44852 -0.0741256 
0.367929 101.571 125.204 7.03384 -0.714552 178.162 0.028317 -7.91063 -1.16363 19.3692 45.0154 -7.71371 0.750756 7.42806 -0.188136 5.411 0.760389 -5.67186 -1.15686 3.04211 0.688019 4.27565 1.86243 -0.386627 1.1564 13.2279 8.27759 4.96962e-017 -7.95139e-016 -0 -94.5981 -57.1224 -15.1445 -5.55664 13.4313 -21.465 0.368473 9.90896 -0.00117926 -7.05593 0.36801 12.5931 91.4915 -45.1618 0.243798 11.1188 15.0369 26.5609 -0.369625 9.91382 0.00119886 13.2035 -8.07509 0.96673 -14.6639 19.0731 -0.322324 0.362643 -8.60213 0.0124746 -0.598175 -3.13765 -0.705234 
0.258786 101.523 124.649 6.99378 -0.752429 177.973 -0.0168059 -9.39452 -0.963109 20.5038 46.7928 -9.25599 0.250805 6.37427 -0.157006 5.77605 0.787136 -6.10563 -1.16904 3.01095 0.653938 3.97464 2.0673 -0.36651 1.10118 13.2921 8.34952 5.46658e-016 7.95139e-016 -3.97569e-016 -95.0248 -56.5183 -16.1916 -5.65383 13.4634 -21.5232 0.368473 9.90896 -0.00117926 -7.05008 0.368005 12.5526 91.8452 -45.0203 0.423145 11.147 15.071 26.8194 -0.369625 9.91382 0.00119886 13.2059 -7.74739 1.14462 -14.8643 19.1714 -0.27979 0.259425 -8.67323 0.00482861 -0.649969 -3.52767 -0.83231 
